# AST/ASF file generated using VICON BodyLanguage
# -----------------------------------------------
:version 1.10
:name VICON
:units
  mass 1.0
  length 0.45
  angle deg
:documentation
   .ast/.asf automatically generated from VICON data using
   VICON BodyBuilder and BodyLanguage model FoxedUp or BRILLIANT.MOD
:root
   order TX TY TZ RX RY RZ
   axis XYZ
   position 0 0 0  
   orientation 0 0 0 
:bonedata
  begin
     id 1 
     name lhipjoint
     direction 0.646657 -0.683706 0.338203 
     length 2.4948 
     axis 0 0 0  XYZ
  end
  begin
     id 2 
     name lfemur
     direction 0.34202 -0.939693 0  
     length 6.79491  
     axis 0 0 20  XYZ
    dof rx ry rz
    limits (-160.0 20.0)
           (-70.0 70.0)
           (-60.0 70.0)
  end
  begin
     id 3 
     name ltibia
     direction 0.34202 -0.939693 0   
     length 7.56807   
     axis 0 0 20   XYZ
    dof rx
    limits (-10.0 170.0)
  end
  begin
     id 4 
     name lfoot
     direction 0.0679796 -0.186772 0.980048   
     length 2.53018   
     axis -90 7.62852e-016 20   XYZ
    dof rx rz
    limits (-45.0 90.0)
           (-70.0 20.0)
  end
  begin
     id 5 
     name ltoes
     direction 1.53625e-011 -4.21881e-011 1   
     length 1.26912   
     axis -90 7.62852e-016 20   XYZ
    dof rx
    limits (-90.0 20.0)
  end
  begin
     id 6 
     name rhipjoint
     direction -0.618868 -0.704065 0.348274   
     length 2.42265  
     axis 0 0 0  XYZ 
  end
  begin
     id 7 
     name rfemur
     direction -0.34202 -0.939693 0   
     length 6.73814   
     axis 0 0 -20   XYZ
    dof rx ry rz
    limits (-160.0 20.0)
           (-70.0 70.0)
           (-70.0 60.0)
  end
  begin
     id 8 
     name rtibia
     direction -0.34202 -0.939693 0   
     length 7.66799   
     axis 0 0 -20   XYZ
    dof rx
    limits (-10.0 170.0)
 end
 begin
     id 9 
     name rfoot
     direction -0.0727352 -0.199838 0.977125   
     length 2.57224  
     axis -90 -7.62852e-016 -20   XYZ
    dof rx rz
    limits (-45.0 90.0)
           (-20.0 70.0)
  end
  begin
     id 10 
     name rtoes
     direction -1.53501e-011 -4.21858e-011 1   
     length 1.28858   
     axis -90 -7.62852e-016 -20   XYZ
    dof rx
    limits (-90.0 20.0)
  end
  begin
     id 11 
     name lowerback
     direction -0.0172471 0.995767 -0.0902851   
     length 2.20206   
     axis 0 0 0   XYZ
    dof rx ry rz
    limits (-20.0 45.0)
           (-30.0 30.0)
           (-30.0 30.0)
  end
  begin
     id 12 
     name upperback
     direction -0.000110737 0.999714 0.0239043   
     length 2.19523   
     axis 0 0 0   XYZ
    dof rx ry rz
    limits (-20.0 45.0)
           (-30.0 30.0)
           (-30.0 30.0)
  end
  begin
     id 13 
     name thorax
     direction 0.00704869 0.997783 0.0661741   
     length 2.21977   
     axis 0 0 0   XYZ
    dof rx ry rz
    limits (-20.0 45.0)
           (-30.0 30.0)
           (-30.0 30.0)
  end
  begin
     id 14 
     name lowerneck
     direction -0.00407501 0.995527 0.0943846   
     length 1.83142   
     axis 0 0 0   XYZ
    dof rx ry rz
    limits (-20.0 45.0)
           (-30.0 30.0)
           (-30.0 30.0)
  end
  begin
     id 15 
     name upperneck
     direction 0.0640586 0.986486 -0.150807   
     length 1.84616   
     axis 0 0 0   XYZ
    dof rx ry rz
    limits (-20.0 45.0)
           (-30.0 30.0)
           (-30.0 30.0)
  end
  begin
     id 16
     name head
     direction 0.0188017 0.99791 -0.0618239  
     length 1.85932  
     axis 0 0 0   XYZ
    dof rx ry rz
    limits (-20.0 45.0)
           (-30.0 30.0)
           (-30.0 30.0)
  end
  begin
     id 17 
     name lclavicle
     direction 0.976074 0.206905 0.066852  
     length 3.81043  
     axis 0 0 0   XYZ
    dof ry rz
    limits (-20.0 10.0)
           (0.0 20.0)
  end
  begin
     id 18 
     name lhumerus
     direction 1 -4.48971e-011 1.86916e-027   
     length 5.37587   
     axis 180 -30 -90   XYZ
    dof rx ry rz
    limits (-60.0 90.0)
           (-90.0 90.0)
           (-90.0 90.0)
  end
  begin
     id 19
     name lradius
     direction 1 -4.48968e-011 1.69187e-027   
     length 3.35977   
     axis 180 -30 -90   XYZ
    dof rx
    limits (-10.0 170.0)
  end
  begin
     id 20
     name lwrist
     direction 1 -4.48968e-011 5.8978e-027   
     length 1.67988   
     axis -3.27506e-015 90 90   XYZ
    dof ry
    limits (-180.0 0.0)
 end
  begin
     id 21 
     name lhand
     direction 1 -4.49028e-011 1.18071e-026   
     length 0.561859   
     axis -7.52654e-015 90 90   XYZ
    dof rx rz
    limits (-90.0 90.0)
           (-45.0 45.0)
  end
  begin
     id 22 
     name lfingers
     direction 1 -4.48927e-011 2.35758e-026   
     length 0.452985   
     axis -1.50534e-014 90 90   XYZ
    dof rx
    limits (0.0 90.0)
  end
  begin
     id 23
     name lthumb
     direction 0.707107 -6.34898e-011 0.707107   
     length 0.650399   
     axis -90 45 5.69224e-014   XYZ
    dof rx rz
    limits (-45.0 45.0)
           (-45.0 45.0)
  end
  begin
     id 24 
     name rclavicle
     direction -0.988403 0.151789 0.00439714   
     length 3.6942  
     axis 0 0 0   XYZ 
    dof ry rz
    limits (-10.0 20.0)
           (-20.0 0.0)
  end
  begin
     id 25 
     name rhumerus
     direction -1 -4.48978e-011 1.62495e-027  
     length 5.22819   
     axis 180 30 90   XYZ
    dof rx ry rz
    limits (-90.0 60.0)
           (-90.0 90.0)
           (-90.0 90.0)
  end
  begin
     id 26 
     name rradius
     direction -1 -4.48961e-011 3.47796e-027   
     length 3.40764   
     axis 180 30 90   XYZ
    dof rx
    limits (-10.0 170.0)
  end
  begin
     id 27 
     name rwrist
     direction -1 -4.48949e-011 5.89602e-027   
     length 1.70382   
     axis -3.27506e-015 -90 -90   XYZ
    dof ry
    limits (-180.0 0.0)
  end
  begin
     id 28
     name rhand
     direction -1 -4.48977e-011 1.17973e-026   
     length 0.583255   
     axis -7.52654e-015 -90 -90   XYZ
    dof rx rz
    limits (-90.0 90.0)
           (-45.0 45.0)
  end
  begin
     id 29
     name rfingers
     direction -1 -4.49099e-011 2.36408e-026   
     length 0.470235   
     axis -1.50534e-014 -90 -90   XYZ
    dof rx
    limits (0.0 90.0)
  end
  begin
     id 30
     name rthumb
     direction -0.707107 -6.35011e-011 0.707107   
     length 0.675167   
     axis -90 -45 -5.69224e-014   XYZ
    dof rx rz
    limits (-45.0 45.0)
           (-45.0 45.0)
  end
:hierarchy
  begin
    root lhipjoint rhipjoint lowerback
    lhipjoint lfemur
    lfemur ltibia
    ltibia lfoot
    lfoot ltoes
    rhipjoint rfemur
    rfemur rtibia
    rtibia rfoot
    rfoot rtoes
    lowerback upperback
    upperback thorax
    thorax lowerneck lclavicle rclavicle
    lowerneck upperneck
    upperneck head
    lclavicle lhumerus
    lhumerus lradius
    lradius lwrist
    lwrist lhand lthumb
    lhand lfingers
    rclavicle rhumerus
    rhumerus rradius
    rradius rwrist
    rwrist rhand rthumb
    rhand rfingers
  end

#!OML:ASF G:\JayActor3\Patient Classification 1\Patient 1\Session 2\male.ASF
:FULLY-SPECIFIED
:DEGREES
471
root 11.298 16.7388 -4.98032 337.453 -65.0716 -329.094
lowerback 0.742639 2.74782 -0.372658
upperback 3.89981 3.73527 -4.88475
thorax 3.92107 1.91196 -4.75304
lowerneck -4.68509 14.71 6.67703
upperneck 24.5947 19.7441 -1.90359
head 9.39156 9.56338 0.257924
rclavicle 2.11706e-014 -2.38542e-014
rhumerus -51.3659 -7.19705 -80.5515
rradius 72.6131
rwrist -14.929
rhand -22.2049 2.31846
rfingers 7.12502
rthumb 4.21089 -27.6197
lclavicle 2.11706e-014 -2.38542e-014
lhumerus -15.8916 -46.6032 79.1149
lradius 77.4486
lwrist 22.3721
lhand -14.6485 17.588
lfingers 7.12502
lthumb 11.5038 47.2523
rfemur -25.2433 1.77675 3.34735
rtibia 47.0159
rfoot -31.48 -11.7703
rtoes 17.5489
lfemur -3.30028 12.2344 -24.1218
ltibia 28.523
lfoot 14.8453 -9.1646
ltoes 25.809
472
root 11.107 16.7161 -5.03903 338.769 -63.7542 -330.637
lowerback 0.425691 3.18636 -0.192184
upperback 3.76261 4.33571 -5.00291
thorax 4.03219 2.22365 -4.94345
lowerneck -4.35156 15.0177 6.95361
upperneck 24.9518 20.1274 -1.6381
head 9.48015 9.7938 0.341635
rclavicle -1.47101e-014 -3.06128e-014
rhumerus -52.8316 -8.90601 -81.3667
rradius 71.5913
rwrist -15.25
rhand -23.1956 2.53456
rfingers 7.12502
rthumb 3.25419 -27.4203
lclavicle -1.47101e-014 -3.06128e-014
lhumerus -17.944 -47.2075 81.0196
lradius 76.3655
lwrist 22.4667
lhand -15.3671 17.5265
lfingers 7.12502
lthumb 10.8107 47.2282
rfemur -23.245 2.07721 4.0264
rtibia 46.023
rfoot -32.6768 -12.7031
rtoes 19.7323
lfemur -3.20578 11.7988 -23.2156
ltibia 29.3105
lfoot 16.4331 -8.44438
ltoes 28.2434
473
root 10.921 16.7071 -5.09635 340.553 -62.5121 -332.787
lowerback 0.251289 3.5992 0.379657
upperback 3.63996 4.89065 -5.03459
thorax 4.10601 2.52575 -5.2679
lowerneck -4.02436 15.2283 7.18074
upperneck 25.238 20.4009 -1.45683
head 9.54361 9.96261 0.389321
rclavicle -3.47873e-014 -1.98785e-015
rhumerus -53.8813 -10.3571 -82.3031
rradius 70.3579
rwrist -15.3675
rhand -24.3132 2.7906
rfingers 7.12502
rthumb 2.17486 -27.1781
lclavicle -3.47873e-014 -1.98785e-015
lhumerus -19.987 -47.6202 82.7328
lradius 75.4641
lwrist 22.5946
lhand -16.0016 17.4459
lfingers 7.12502
lthumb 10.1986 47.1786
rfemur -21.4224 2.1123 5.16058
rtibia 45.2668
rfoot -33.75 -13.5349
rtoes 21.5247
lfemur -3.40006 11.2792 -21.9867
ltibia 30.5737
lfoot 17.7228 -7.61212
ltoes 30.1338
474
root 10.7433 16.7102 -5.15117 342.773 -61.3449 -335.526
lowerback 0.21689 3.98903 1.39469
upperback 3.54027 5.40359 -4.96782
thorax 4.16516 2.82193 -5.74521
lowerneck -3.74066 15.3512 7.37771
upperneck 25.5042 20.575 -1.35923
head 9.60933 10.0739 0.405492
rclavicle -1.18277e-014 2.82274e-014
rhumerus -54.4636 -11.5167 -83.3594
rradius 68.9032
rwrist -15.3353
rhand -25.4663 3.07869
rfingers 7.12502
rthumb 1.06117 -26.8984
lclavicle -1.18277e-014 2.82274e-014
lhumerus -21.9521 -47.8031 84.2433
lradius 74.6628
lwrist 22.6437
lhand -16.4862 17.3587
lfingers 7.12502
lthumb 9.73108 47.1139
rfemur -19.7517 1.84118 6.71726
rtibia 44.6276
rfoot -34.6093 -14.1932
rtoes 23.0275
lfemur -3.95161 10.6523 -20.423
ltibia 32.4143
lfoot 18.6602 -6.75826
ltoes 31.3735
475
root 10.5761 16.7208 -5.20322 345.325 -60.211 -338.743
lowerback 0.299573 4.35226 2.80918
upperback 3.46885 5.87384 -4.79761
thorax 4.23162 3.11012 -6.34618
lowerneck -3.55017 15.3994 7.56004
upperneck 25.8055 20.6604 -1.32377
head 9.70598 10.1337 0.403441
rclavicle 7.62339e-014 -4.29375e-014
rhumerus -54.5666 -12.3375 -84.5099
rradius 67.2535
rwrist -15.2276
rhand -26.5093 3.35232
rfingers 7.12502
rthumb 0.0538 -26.6274
lclavicle 7.62339e-014 -4.29375e-014
lhumerus -23.7987 -47.7433 85.5444
lradius 73.8955
lwrist 22.508
lhand -16.8596 17.2866
lfingers 7.12502
lthumb 9.37079 47.0583
rfemur -18.1797 1.24353 8.61054
rtibia 43.9883
rfoot -35.1857 -14.7007
rtoes 24.1414
lfemur -4.88682 9.91405 -18.5596
ltibia 34.8505
lfoot 19.2831 -5.94042
ltoes 31.9423
476
root 10.4186 16.7335 -5.25307 347.968 -59.0385 -342.168
lowerback 0.446734 4.67358 4.43516
upperback 3.43999 6.28678 -4.52898
thorax 4.3327 3.37669 -6.96741
lowerneck -3.4846 15.3982 7.70517
upperneck 26.1494 20.6862 -1.322
head 9.83754 10.1556 0.401441
rclavicle -2.3059e-014 -2.78299e-015
rhumerus -54.2118 -12.722 -85.732
rradius 65.4617
rwrist -15.1226
rhand -27.3321 3.63958
rfingers 7.12502
rthumb -0.740838 -26.3389
lclavicle -2.3059e-014 -2.78299e-015
lhumerus -25.4773 -47.409 86.6324
lradius 73.0863
lwrist 22.1228
lhand -17.1716 17.2152
lfingers 7.12502
lthumb 9.0698 47.0002
rfemur -16.6353 0.391065 10.6851
rtibia 43.2627
rfoot -35.5352 -15.0045
rtoes 25.2596
lfemur -6.17894 9.11032 -16.5133
ltibia 37.8069
lfoot 19.7129 -5.18867
ltoes 31.7795
477
root 10.2675 16.7449 -5.30216 350.438 -57.7575 -345.467
lowerback 0.581574 4.95085 6.0312
upperback 3.45459 6.64158 -4.19513
thorax 4.48612 3.61394 -7.50038
lowerneck -3.5413 15.365 7.78413
upperneck 26.4967 20.6646 -1.3009
head 9.9803 10.1493 0.418664
rclavicle -1.32689e-014 -9.93923e-015
rhumerus -53.4875 -12.6321 -86.9928
rradius 63.6378
rwrist -15.0964
rhand -27.8669 3.97039
rfingers 7.12502
rthumb -1.25738 -26.0056
lclavicle -1.32689e-014 -9.93923e-015
lhumerus -26.9601 -46.8363 87.4984
lradius 72.1868
lwrist 21.4958
lhand -17.4376 17.0964
lfingers 7.12502
lthumb 8.81305 46.8924
rfemur -15.0798 -0.669485 12.756
rtibia 42.4175
rfoot -35.769 -15.2188
rtoes 26.1987
lfemur -7.79327 8.29321 -14.4557
ltibia 41.1391
lfoot 20.0831 -4.49761
ltoes 30.8318
478
root 10.1177 16.7533 -5.35131 352.507 -56.3757 -348.334
lowerback 0.632044 5.2076 7.37539
upperback 3.50778 6.96637 -3.8396
thorax 4.70387 3.82974 -7.85587
lowerneck -3.66146 15.3079 7.78658
upperneck 26.7518 20.6006 -1.24253
head 10.0854 10.1223 0.452606
rclavicle 4.9895e-014 -3.97569e-016
rhumerus -52.5231 -12.0731 -88.2604
rradius 61.9223
rwrist -15.156
rhand -28.1214 4.34978
rfingers 7.12502
rthumb -1.50316 -25.6247
lclavicle 4.9895e-014 -3.97569e-016
lhumerus -28.239 -46.0962 88.147
lradius 71.1774
lwrist 20.7096
lhand -17.7034 16.9327
lfingers 7.12502
lthumb 8.55661 46.7393
rfemur -13.5071 -1.79611 14.6675
rtibia 41.4563
rfoot -36.0005 -15.3788
rtoes 27.0113
lfemur -9.66774 7.54852 -12.5578
ltibia 44.6852
lfoot 20.4934 -3.91234
ltoes 28.9345
479
root 9.96432 16.76 -5.40149 354.045 -54.9031 -350.562
lowerback 0.567199 5.46006 8.29683
upperback 3.57911 7.27985 -3.50795
thorax 4.96093 4.02671 -7.98174
lowerneck -3.77175 15.2333 7.71447
upperneck 26.8397 20.5018 -1.14367
head 10.1118 10.082 0.494656
rclavicle -8.05078e-015 -5.96354e-015
rhumerus -51.4661 -11.0947 -89.5044
rradius 60.4444
rwrist -15.2344
rhand -28.2235 4.79244
rfingers 7.12502
rthumb -1.60177 -25.1813
lclavicle -8.05078e-015 -5.96354e-015
lhumerus -29.3437 -45.2622 88.5926
lradius 70.0745
lwrist 19.8832
lhand -17.9983 16.7192
lfingers 7.12502
lthumb 8.27196 46.5373
rfemur -11.9494 -2.83299 16.3039
rtibia 40.4099
rfoot -36.3491 -15.5661
rtoes 27.7749
lfemur -11.7571 6.92163 -10.978
ltibia 48.2975
lfoot 21.0162 -3.50725
ltoes 25.8233
480
root 9.80564 16.7651 -5.45412 355.102 -53.3798 -352.177
lowerback 0.434392 5.73727 8.8033
upperback 3.62646 7.62589 -3.24489
thorax 5.1943 4.22367 -7.93446
lowerneck -3.81241 15.1308 7.63106
upperneck 26.7433 20.3453 -0.995681
head 10.0479 10.026 0.530942
rclavicle -4.64162e-014 -1.66979e-014
rhumerus -50.4634 -9.8608 -90.706
rradius 59.3064
rwrist -15.2638
rhand -28.324 5.25029
rfingers 7.12502
rthumb -1.69886 -24.7227
lclavicle -4.64162e-014 -1.66979e-014
lhumerus -30.3453 -44.4719 88.8478
lradius 68.9331
lwrist 19.14
lhand -18.3309 16.503
lfingers 7.12502
lthumb 7.95098 46.3335
rfemur -10.4359 -3.64868 17.6932
rtibia 39.3115
rfoot -36.9253 -15.813
rtoes 28.5996
lfemur -14.0214 6.44251 -9.74867
ltibia 51.8715
lfoot 21.6871 -3.3492
ltoes 21.3896
